<svg width="53" height="48" fill="none" xmlns="http://www.w3.org/2000/svg"><g clip-path="url(#clip0)"><path fill-rule="evenodd" clip-rule="evenodd" d="M24.506.426c-.53.616-.18 1.944 1.247 4.726 1.46 2.85 2.31 3.71 4.089 4.143.89.216 2.186.674 2.882 1.016 1.433.707 3.839 3.098 4.662 4.635.698 1.305 1.17 1.539 4.422 2.187 3.998.798 4.913.722 5.799-.478l.743-1.009-1.017-2.077c-2.087-4.265-5.808-8.123-10.14-10.514C33.031.759 25.552-.791 24.505.426zM11.332 3.833C1.275 10.199-2.738 22.839 1.95 33.385l.686 1.544 1.844-.616c1.114-.371 2.84-.62 4.36-.626l2.515-.01 2.677-2.586c1.472-1.422 2.967-3.128 3.323-3.792.645-1.2.644-1.212-.183-2.835-.702-1.377-.83-2.121-.826-4.8.004-3.604.54-4.962 2.952-7.49l1.354-1.418-.554-1.8c-.575-1.872-2.335-5.48-2.8-5.74-.146-.082-1.121-.247-2.166-.367-1.779-.205-2.02-.142-3.8.984zm152.992 8.023c-.702.817.261 2.206 1.89 2.724 1.61.512 3.817.05 4.349-.91.518-.934.428-1.912-.198-2.144-.839-.311-1.178.06-1.178 1.293 0 .97-.137 1.15-1.016 1.337-1.47.311-2.389-.261-2.172-1.354.107-.546-.009-.993-.305-1.175-.668-.408-.848-.378-1.37.23zm-102.734.64c-3.631 1.882-5.177 5.946-3.775 9.92 1.307 3.706 5.425 5.516 8.99 3.953 1.34-.588 2.903-2.205 2.903-3.003 0-.6-.31-.427-1.41.782-2.365 2.602-5.655 2.251-7.514-.801-.796-1.31-.918-1.875-.904-4.183.025-3.852 1.464-6.047 4.198-6.4 1.105-.144 1.539-.018 2.426.702.594.483 1.295 1.503 1.559 2.267.798 2.313 1.3 1.984 1.3-.854v-2.507l-1.123-.005c-.618-.003-2.133-.096-3.368-.207-1.714-.154-2.49-.075-3.282.335zm72.129.045c.123.12.576.386 1.007.594.766.368.785.514.877 6.447l.094 6.071-.871.212c-1.762.427-.792.806 2.065.806 2.848 0 3.828-.38 2.077-.803-.497-.121-.938-.522-1.048-.954-.104-.41-.146-3.223-.092-6.25l.099-5.505 3.375-.095 3.376-.096-.094 6.434c-.093 6.387-.1 6.435-.871 6.541-.428.059-.777.246-.777.417 0 .17 1.321.31 2.936.31 2.967 0 3.577-.237 2.158-.838-.765-.324-.777-.42-.777-6.501 0-6.147.003-6.172.777-6.279.428-.058.778-.246.778-.417 0-.181-3.164-.31-7.657-.31-4.211 0-7.556.097-7.432.216zm-23.246 4.355c-1.841.92-2.77 2.508-2.77 4.741 0 4.085 3.102 6.354 6.702 4.902 1.246-.503 2.378-1.78 2.042-2.304-.114-.178-.457-.011-.762.371-1.999 2.504-5.909 1.012-5.909-2.256v-1.017h6.563v-.98c0-3.075-3.04-4.867-5.866-3.457zm8.165-.342c-.346.335-.27 3.444.084 3.444.172 0 .63-.52 1.018-1.157.756-1.237 1.921-1.717 3.334-1.375.711.172.864.412.864 1.352 0 1.28-.971 2.181-2.351 2.181-1.268 0-.707.818.649.945 1.568.147 2.047.587 2.047 1.88 0 1.717-1.829 2.84-3.581 2.196-.708-.26-.909-.56-.909-1.354 0-1.21-.84-1.665-1.643-.89-1.236 1.195 1.083 3.228 3.682 3.228 4.275 0 6.283-4.191 2.624-5.48-.647-.227-.63-.274.254-.726 1.853-.947 1.734-3.016-.226-3.94-1.163-.548-1.601-.589-3.109-.286-1.024.205-1.912.229-2.132.057-.208-.162-.48-.196-.605-.075zm35.013.147c-1.294.498-2.08 1.313-2.08 2.154 0 .873.603 1.183 1.468.753.37-.184.604-.684.604-1.29 0-.906.101-.989 1.201-.989 1.376 0 2.384 1.103 2.194 2.398-.09.614-.564.921-2.358 1.528-3.586 1.212-4.765 3.18-2.952 4.93 1.027.993 2.342 1.05 4.026.178 1.22-.631 1.245-.631 1.805 0 .576.65 1.453.807 2.446.439.756-.28.686-.799-.107-.799-.924 0-1.073-.611-1.073-4.386 0-1.832-.153-3.605-.338-3.941-.627-1.131-3.125-1.635-4.836-.975zm-82.562.214c0 .14.311.441.691.67.626.378.69.778.69 4.282 0 3.584-.05 3.878-.69 4.04-1.47.37-.582.764 1.727.764 2.334 0 3.155-.397 1.727-.835-.38-.116-.69-.437-.69-.714 0-.525 4.114-5.115 4.59-5.12.15-.002.228 1.235.173 2.748-.09 2.488-.175 2.785-.878 3.082-1.36.576-.846.838 1.641.838 2.507 0 2.905-.212 1.727-.923-.623-.376-.69-.778-.69-4.08 0-3.304.067-3.706.69-4.082 1.178-.71.78-.923-1.727-.923-2.524 0-3.015.297-1.554.94.475.21.86.496.856.638-.004.141-1.085 1.383-2.403 2.759l-2.395 2.502-.015-2.95c-.014-2.677.049-2.967.675-3.125 1.47-.371.582-.764-1.727-.764-1.33 0-2.418.114-2.418.253zm13.33.032c-.1.156.202.454.67.66.832.366.853.466.853 4.05 0 3.312-.068 3.714-.69 4.09-1.179.71-.78.924 1.726.924 2.488 0 3-.263 1.641-.839-.67-.284-.777-.581-.777-2.164v-1.835h4.49l.11 1.666c.096 1.487.004 1.746-.864 2.417l-.973.751 2.677.002c2.727.002 3.292-.247 1.9-.837-.74-.314-.777-.507-.777-4.156 0-3.632.04-3.846.775-4.2 1.156-.557.572-.814-1.849-.814-2.369 0-3.008.36-1.679.945.724.318.853.603.853 1.884v1.508h-4.874l.106-1.577c.083-1.243.269-1.655.88-1.948.426-.204.672-.47.547-.591-.337-.326-4.532-.269-4.745.064zm12.576 1.207c0 1.761.29 1.894 1.107.508.452-.767.833-1 1.64-1h1.053v3.643c0 4.091-.139 4.698-1.073 4.698-.36 0-.654.15-.654.334 0 .193 1.094.334 2.591.334 2.646 0 3.194-.254 1.813-.839-.734-.31-.783-.548-.875-4.25l-.097-3.92h1.059c.844 0 1.204.238 1.772 1.168.392.642.814 1.107.938 1.033.124-.074.225-.787.225-1.585v-1.45l-4.749-.092-4.75-.093v1.51zm64.825-1.271c-.125.12.121.387.547.592.715.343.783.634.876 3.7.115 3.763-.062 4.828-.798 4.828-.282 0-.512.15-.512.334 0 .19 1.037.334 2.418.334 2.48 0 2.993-.259 1.663-.839-.415-.181-.806-.487-.869-.68-.063-.193.969-1.469 2.293-2.835l2.407-2.486.017 2.95c.015 2.678-.048 2.967-.675 3.126-1.47.37-.582.764 1.727.764s3.197-.393 1.727-.764c-.643-.163-.691-.456-.691-4.24 0-3.786.048-4.079.691-4.241 1.47-.371.582-.764-1.727-.764-2.334 0-3.155.396-1.727.834.38.117.691.452.691.745 0 .472-3.891 4.746-4.591 5.042-.151.064-.229-1.133-.173-2.66.09-2.493.18-2.814.876-3.148.426-.205.672-.471.547-.593-.297-.287-4.419-.287-4.717 0zm13.098.064c-.101.156.201.454.67.66.828.364.853.479.853 3.858 0 3.758-.155 4.538-.901 4.538-.264 0-.481.15-.481.334 0 .19 1.036.334 2.418.334 2.487 0 3-.263 1.641-.839-.734-.31-.783-.548-.875-4.25l-.097-3.92h4.512v4.036c0 3.753-.048 4.046-.691 4.209-1.469.37-.582.764 1.728.764 2.334 0 3.155-.397 1.727-.835-.64-.196-.691-.504-.691-4.17 0-3.665.051-3.974.691-4.17.38-.116.69-.352.69-.523 0-.392-10.943-.418-11.194-.026zm-61.404.672c.49.3 1.142 2.558.827 2.863-.105.1-1.174.183-2.378.183-2.069 0-2.187-.042-2.187-.789 0-1.803 2.255-3.165 3.738-2.257zm43.584 5.33c0 1.658-.461 2.361-1.863 2.844-.911.314-2.282-.632-2.282-1.574 0-.858 1.106-2.006 2.418-2.512 1.555-.599 1.727-.475 1.727 1.242zM35.939 26.611c-2.579 2.96-7.183 4.577-10.767 3.78-1.396-.311-1.62-.268-2.546.484-1.463 1.19-3.49 3.636-4.507 5.44l-.88 1.56.933 1.818c.792 1.545.932 2.244.932 4.656 0 2.161.124 2.914.518 3.153.285.173 2.238.379 4.34.457 3.089.115 4.38.008 6.735-.561 7.37-1.777 13.158-6.263 16.577-12.843 1.553-2.99 1.637-3.538.672-4.382-.38-.332-1.07-1.379-1.534-2.325-.797-1.628-.943-1.744-2.677-2.137-1.008-.228-2.844-.5-4.078-.602l-2.246-.187-1.471 1.69zm23.32 4.626c-.387.098-.604.475-.603 1.046l.002.893.806-.974c.543-.654.995-.904 1.38-.76.82.303.708 1.395-.203 2.01l-.778.523.754.018c.902.02 1.387 1.17.787 1.868-.607.706-1.747.6-1.959-.183-.191-.707-.62-.87-.946-.36-.313.488.814 1.36 1.757 1.36 1.97 0 2.853-1.416 1.671-2.677-.472-.504-.472-.606 0-.985.666-.534.663-.829-.016-1.484-.527-.51-1.412-.608-2.652-.295zm9.746.416c.196.355.357 1.34.357 2.19 0 .85-.16 1.836-.357 2.19-.325.586-.236.646.959.646 2.285 0 3.807-1.782 2.248-2.632-.484-.264-.519-.413-.173-.75.638-.622.525-1.55-.236-1.944-1.01-.522-1.128-.424-.535.45.495.73.49.846-.054 1.372-.556.536-.556.595-.014.888.736.398.757 1.812.03 2.08-.845.314-1.23-.097-1.166-1.25.169-3.019.01-3.886-.714-3.886-.588 0-.644.106-.345.646zm5.35.174c-1.069 1.031-1.126 2.753-.132 3.973 1.87 2.296 5.1-.089 4.097-3.024-.647-1.894-2.522-2.343-3.965-.95zm6.068-.138c.285.514.245 1.125-.165 2.485-.298.992-.696 1.895-.883 2.007-.188.112-.336.533-.33.935.009.657.046.672.362.147.262-.435.8-.584 2.11-.584 1.27 0 1.886.162 2.217.584.425.54.46.528.47-.167.006-.413-.144-.75-.334-.75-.201 0-.346-1.094-.346-2.614 0-2.1-.101-2.613-.518-2.613-.416 0-.518.512-.518 2.613v2.613h-1.209c-.665 0-1.207-.037-1.205-.083.002-.046.235-.82.518-1.721.678-2.158.672-3.533-.016-3.533-.427 0-.456.132-.153.681zm6.728 2.153c0 2.709.035 2.836.769 2.836.69 0 .733-.09.419-.888-.373-.946-.35-3.535.037-4.14.127-.2.681-.313 1.23-.252.972.107 1.002.168 1.103 2.224.062 1.272-.058 2.302-.301 2.586-.33.383-.253.47.414.47.798 0 .82-.073.82-2.835v-2.836H87.15v2.835zm6.688-2.197c-.647.506-.816.961-.816 2.198s.169 1.692.816 2.198c2.356 1.843 5.174-.899 3.718-3.618-.835-1.559-2.322-1.87-3.718-.778zm7.129 2.198c0 2.787.014 2.836.846 2.836.658 0 .754-.09.432-.4-.471-.455-.556-3.873-.113-4.548.166-.252.723-.396 1.29-.333.972.107 1.002.168 1.102 2.224.063 1.272-.057 2.302-.301 2.586-.329.383-.252.47.415.47.798 0 .819-.073.819-2.835v-2.836h-4.49v2.836zm6.217 0c0 2.71.034 2.836.77 2.836.693 0 .731-.082.381-.824-.446-.946.074-1.845 1.067-1.845 1.469 0 1.982-2.147.632-2.64-.883-.323-1.334-.13-.651.277.759.453.33 1.848-.608 1.975-.781.107-.816.038-.637-1.25.156-1.121.087-1.364-.382-1.364-.487 0-.572.42-.572 2.835zm5.069-2.064c-1.054 1.084-1.029 3.197.048 4.175 1.795 1.628 4.037.463 4.037-2.098 0-2.562-2.418-3.79-4.085-2.077zm5.477-.085c.473.854.416 4.106-.08 4.585-.322.31-.199.4.555.4.739 0 .92-.125.762-.523-.125-.315.284-1.142 1.032-2.085l1.239-1.562-.118 2.085c-.115 2.005-.087 2.086.7 2.086.614-.001.731-.105.466-.418-.434-.51-.447-3.867-.018-4.67.258-.485.156-.584-.601-.584-.687 0-.861.129-.705.522.125.316-.284 1.142-1.032 2.085l-1.239 1.563.118-2.044c.112-1.924.074-2.044-.647-2.044-.632 0-.708.106-.432.604zm6.466-.457c-.39.099-.601.47-.594 1.046.011.857.031.867.519.245.278-.356.507-.78.507-.94 0-.162.349-.245.777-.187 1.068.147 1.292 1.584.286 1.838-.905.229-.94.771-.05.771.819 0 1.269 1.189.7 1.85-.644.75-2.059.625-2.059-.182 0-.37-.23-.667-.518-.667-.67 0-.66.482.025 1.144.622.601 1.959.682 2.934.179.801-.414.87-1.556.141-2.333-.472-.504-.472-.606 0-.985.666-.534.663-.829-.016-1.484-.527-.51-1.412-.608-2.652-.295zm4.404 2.606v2.836h1.218c1.332 0 2.754-.773 2.754-1.496 0-.252-.254-.704-.565-1.004-.421-.407-.465-.642-.173-.924.603-.582.467-1.518-.275-1.902-.899-.465-1.292-.437-.783.055.543.525.532 1.831-.017 2.055-.309.125-.26.28.172.544.755.462.792 1.864.056 2.137-.847.313-1.231-.098-1.167-1.25.159-2.858-.004-3.886-.616-3.886-.528 0-.604.357-.604 2.835zm5.511-2.017c-1.68 1.623-.618 4.853 1.595 4.853 1.493 0 2.393-1.045 2.393-2.778 0-2.57-2.259-3.745-3.988-2.075zm5.966.61c.162 1.381-.33 2.947-1.355 4.31-.234.313-.303.687-.153.832.15.144.424.002.609-.318.478-.825 3.581-.825 4.059 0 .185.32.447.474.582.344.135-.13-.009-.612-.32-1.07-.671-.99-.774-4.523-.15-5.126.322-.311.249-.4-.331-.4-.691 0-.752.189-.846 2.585l-.101 2.585-1.123.105c-.617.058-1.122.032-1.122-.056 0-.089.245-1.086.545-2.216.533-2.008.484-3.004-.147-3.004-.172 0-.238.643-.147 1.428zm5.383-.678c-2.148 2.293-.228 5.841 2.509 4.637.46-.203.838-.546.838-.762 0-.242-.241-.181-.632.16-.826.722-1.291.697-2.132-.115-1.294-1.25-.551-4.337 1.045-4.337.365 0 .891.41 1.176.917l.515.918.014-.878c.01-.636-.202-.935-.764-1.08-1.328-.344-1.841-.236-2.569.54zm3.811-.236c-.321.81.055.888.743.155.572-.611.576-.67.044-.67-.32 0-.674.232-.787.515zm1.895 1.824c.09 1.545-.008 2.508-.29 2.836-.363.423-.257.497.721.497.892 0 1.055-.09.733-.4-.247-.239-.415-1.387-.415-2.836 0-1.76-.123-2.435-.443-2.435-.331 0-.408.59-.306 2.338zm1.866-1.671c.512.791 1.12.895.82.14-.115-.291-.21-.591-.21-.668 0-.077-.234-.14-.52-.14-.435 0-.45.111-.09.668zm1.934 1.671c.09 1.545-.009 2.508-.29 2.836-.358.416-.294.497.393.497.767 0 .817-.115.764-1.752-.031-.963-.071-2.239-.088-2.835-.018-.645-.21-1.084-.473-1.084-.331 0-.409.59-.306 2.338zm2.184-1.525c.301.64.293.952-.037 1.336-.348.405-.325.603.122 1.035.721.696.697 1.013-.138 1.82-.743.717-.374.883.713.322.801-.415.878-1.74.136-2.336-.37-.296-.423-.533-.173-.775.579-.559.415-1.496-.329-1.88-.639-.331-.66-.297-.294.478zm2.078-.563a104.5 104.5 0 001.089 2.035c1.074 1.975 1.02 2.899-.151 2.54-.531-.163-.69-.1-.577.227.085.249.454.452.818.452.483 0 1.048-.743 2.093-2.752 1.308-2.515 1.372-2.752.74-2.752-.467 0-.627.159-.495.492.108.27-.049 1.056-.347 1.745l-.542 1.253-.677-1.276c-.373-.702-.594-1.487-.491-1.745.13-.328-.079-.47-.695-.47-.485 0-.829.113-.765.25zm8.696.264c-.322.81.055.888.742.155.572-.611.576-.67.045-.67-.321 0-.675.232-.787.515zm1.926-.264c-.015.137-.004 1.197.024 2.356.03 1.214-.122 2.308-.36 2.585-.342.398-.251.48.53.48.718 0 .893-.126.733-.528-.115-.29-.209-1.566-.209-2.836 0-1.316-.149-2.307-.346-2.307-.19 0-.357.112-.372.25zm1.409-.088c0 .12.25.46.555.755.51.493.545.486.432-.08-.115-.57-.987-1.166-.987-.675zm2.359 2.173c.09 1.548-.008 2.51-.29 2.84-.359.416-.289.496.432.496.768 0 .855-.132.819-1.24-.031-.99.1-1.266.652-1.37.38-.072.885-.283 1.122-.47.657-.515.516-1.857-.236-2.246-1.018-.527-1.231-.415-.564.297.774.826.574 1.83-.39 1.963-.642.09-.767-.078-.86-1.142-.06-.684-.269-1.296-.465-1.358-.232-.073-.309.712-.22 2.23zm3.917-2.085a104.5 104.5 0 001.089 2.035c1.058 1.944 1.017 2.898-.11 2.553-.688-.212-.98.289-.378.647.736.44 1.548-.398 2.653-2.739.647-1.373 1.177-2.553 1.177-2.621 0-.07-.249-.125-.555-.125-.314 0-.48.188-.382.434.095.239-.054.952-.332 1.584-.489 1.116-.519 1.13-1.02.484-.284-.367-.604-1.08-.711-1.585-.132-.625-.41-.918-.871-.918-.372 0-.624.113-.56.25zm5.64 2.585v2.836h1.146c1.695 0 2.481-.529 2.481-1.668 0-1.051-.774-1.668-2.095-1.668-.674 0-.736-.13-.562-1.168.159-.948.086-1.167-.387-1.167-.501 0-.583.397-.583 2.835zm2.624-2.252c.254.321.506.647.56.723.054.077.098-.186.098-.584 0-.444-.216-.723-.56-.723-.48 0-.494.084-.098.584zM64.515 33.426c-.433 1.147-.918 2.228-1.078 2.402-.47.51-.339.85.326.85.447 0 .614-.253.604-.916-.012-.8.12-.918 1.023-.918.903 0 1.034.117 1.023.917-.011.738.141.918.777.918.826 0 1.004-.313.484-.85-.17-.175-.657-1.256-1.083-2.403-.427-1.147-.891-2.085-1.032-2.085-.142 0-.611.938-1.044 2.085zm12.505-1.533c.807.705.863 3.18.09 3.928-1.321 1.275-2.682.271-2.682-1.978 0-2.273 1.195-3.172 2.592-1.95zm19.433-.028c.327.317.542 1.102.542 1.978 0 1.57-.648 2.502-1.74 2.502-.839 0-1.368-.968-1.368-2.502 0-2.245 1.273-3.226 2.566-1.978zm18.657.218c1.133 1.562.25 4.414-1.3 4.198-2.071-.289-1.945-4.94.134-4.94.345 0 .87.334 1.166.742zm21.761 0c1.199 1.653.238 4.513-1.414 4.205-1.978-.368-1.749-4.947.248-4.947.345 0 .87.334 1.166.742zm-70.968 1.844c.003.23-.306.417-.686.417-.796 0-.832-.123-.308-1.068.307-.554.443-.6.685-.229.167.255.306.65.309.88zm119.998.5c.487.747-.107 1.752-1.035 1.752-.685 0-1.055-1.112-.682-2.051.252-.634 1.218-.466 1.717.299z" fill="#1278B6"/></g><defs><clipPath id="clip0"><path fill="#fff" d="M0 0h53v48H0z"/></clipPath></defs></svg>