<svg width="52" height="81" fill="none" xmlns="http://www.w3.org/2000/svg"><path d="M22.586 21.012l-.782-.46c-.521-.307-1.211-.644-2.07-1.012a21.396 21.396 0 00-2.806-1.058 10.273 10.273 0 00-2.99-.46c-.767 0-1.395.123-1.886.368-.49.245-.736.66-.736 1.242 0 .552.245.997.736 1.334.49.337 1.18.644 2.07.92.92.276 2.009.613 3.266 1.012 2.024.613 3.772 1.319 5.244 2.116 1.472.797 2.607 1.825 3.404 3.082.797 1.227 1.196 2.867 1.196 4.922 0 1.963-.353 3.619-1.058 4.968-.705 1.319-1.656 2.377-2.852 3.174a12.708 12.708 0 01-4.002 1.748 20.119 20.119 0 01-4.508.506c-1.564 0-3.205-.153-4.922-.46a37.522 37.522 0 01-4.922-1.334 27.356 27.356 0 01-4.37-2.024l3.864-7.866.92.552c.613.368 1.426.782 2.438 1.242 1.012.46 2.131.874 3.358 1.242a13.37 13.37 0 003.772.552c.981 0 1.656-.123 2.024-.368.399-.276.598-.629.598-1.058 0-.644-.337-1.135-1.012-1.472-.675-.368-1.564-.705-2.668-1.012-1.073-.337-2.27-.72-3.588-1.15-1.901-.644-3.465-1.365-4.692-2.162-1.227-.828-2.131-1.794-2.714-2.898-.583-1.135-.874-2.5-.874-4.094 0-2.423.567-4.447 1.702-6.072s2.622-2.852 4.462-3.68c1.87-.859 3.88-1.288 6.026-1.288 1.595 0 3.128.2 4.6.598A26.78 26.78 0 0123 12.042a57.063 57.063 0 013.45 1.564l-3.864 7.406zM28.806 70V37.34h22.402v7.82H37.776v5.428h10.948v7.268H37.776V70h-8.97z" fill="#70B4D8"/></svg>